<svg width="256" height="96" viewBox="0 0 256 96" fill="none" xmlns="http://www.w3.org/2000/svg">
<g clip-path="url(#clip0_95_7952)">
<path fill-rule="evenodd" clip-rule="evenodd" d="M24 67.8246H74.5571V42.338L49.2772 67.8246L24 42.338V67.8246Z" fill="#00CD69"/>
<path fill-rule="evenodd" clip-rule="evenodd" d="M49.2772 56.6732C57.1304 56.6732 63.4973 50.2536 63.4973 42.3352C63.4973 34.4169 57.1304 28 49.2772 28C41.4239 28 35.0598 34.4196 35.0598 42.338C35.0598 50.2563 41.4266 56.6759 49.2799 56.6759" fill="#FFAA46"/>
<path d="M93.7826 28.7261H105.28V32.5154H97.9946V35.2937H104.62V39.083H97.9946V44.7984H93.7826V28.7261Z" fill="black"/>
<path d="M169.813 28.0384H173.685V44.7984H169.813V28.0384ZM164.005 35.2717C164.94 33.9182 166.351 33.3428 168.285 33.5511V37.3404C167.511 37.1787 166.761 37.2034 166.054 37.4089C165.326 37.639 164.802 38.0062 164.459 38.535V44.8039H160.587V33.7785H164.003V35.2717H164.005ZM155.103 38.1185C155.171 37.7514 155.082 37.3376 154.829 36.902C154.554 36.4663 154.076 36.2581 153.394 36.2581C152.848 36.2581 152.391 36.4198 152.005 36.7622C151.62 37.1075 151.438 37.5431 151.438 38.1158H155.103V38.1185ZM147.565 39.2884C147.565 38.2555 147.747 37.3595 148.111 36.5567C148.476 35.7759 148.954 35.1567 149.546 34.721C150.139 34.2854 150.753 33.9621 151.391 33.7566C152.03 33.5511 152.666 33.436 153.304 33.436C154.215 33.436 155.035 33.573 155.742 33.8497C156.448 34.1264 157.016 34.4936 157.448 34.9512C157.859 35.4115 158.201 35.9375 158.451 36.5348C158.701 37.1541 158.837 37.776 158.837 38.4418C158.815 39.1076 158.745 39.7953 158.633 40.4611H151.484C151.894 41.5872 153.054 42.1599 154.967 42.1599C156.128 42.1599 157.177 41.9763 158.109 41.6311V44.5244C156.948 44.9381 155.603 45.1436 154.054 45.1436C152.188 45.1436 150.639 44.6148 149.41 43.5819C148.179 42.5489 147.565 41.1242 147.565 39.2884ZM132.239 44.7984H128.367V33.7785H131.783V34.9484C132.125 34.5594 132.579 34.1895 133.196 33.8936C133.788 33.5949 134.448 33.4332 135.155 33.4332C136.611 33.4332 137.682 33.9374 138.389 34.9484C139.459 33.9374 140.62 33.4332 141.872 33.4332C142.647 33.4332 143.307 33.5702 143.875 33.847C144.443 34.1456 144.853 34.5128 145.128 34.9731C145.402 35.4553 145.606 35.9156 145.72 36.3513C145.834 36.8116 145.902 37.2691 145.902 37.7294V44.8011H142.03V38.0747C142.03 37.6609 141.916 37.3404 141.688 37.1102C141.438 36.8801 141.141 36.765 140.777 36.765C140.185 36.765 139.66 36.9951 139.182 37.4774V44.8011H135.31V38.0747C135.31 37.6609 135.196 37.3404 134.967 37.1102C134.717 36.8801 134.421 36.765 134.057 36.765C133.351 36.765 132.736 37.0856 132.236 37.7294V44.8011L132.239 44.7984ZM122.584 35.269C123.519 33.9155 124.929 33.3401 126.864 33.5483V37.3376C126.09 37.176 125.34 37.2006 124.633 37.4061C123.905 37.6363 123.38 38.0034 123.038 38.5322V44.8011H119.166V33.7785H122.582V35.2717L122.584 35.269ZM113.682 38.1158C113.75 37.7486 113.66 37.3349 113.408 36.8992C113.133 36.4636 112.655 36.2554 111.973 36.2554C111.427 36.2554 110.97 36.417 110.584 36.7595C110.198 37.1047 110.016 37.5404 110.016 38.113H113.682V38.1158ZM106.144 39.2857C106.144 38.2528 106.326 37.3568 106.69 36.554C107.054 35.7731 107.533 35.1539 108.125 34.7183C108.717 34.2826 109.332 33.9593 109.97 33.7538C110.609 33.5483 111.245 33.4332 111.883 33.4332C112.793 33.4332 113.614 33.5702 114.321 33.847C115.027 34.1237 115.595 34.4909 116.027 34.9484C116.438 35.4087 116.78 35.9348 117.03 36.5321C117.28 37.1513 117.416 37.7733 117.416 38.4391C117.394 39.1049 117.323 39.7926 117.212 40.4584H110.063C110.473 41.5845 111.633 42.1571 113.546 42.1571C114.707 42.1571 115.755 41.9736 116.688 41.6283V44.5217C115.527 44.9354 114.182 45.1409 112.633 45.1409C110.766 45.1409 109.217 44.6121 107.989 43.5791C106.758 42.5462 106.144 41.1214 106.144 39.2857Z" fill="black"/>
<path d="M180.084 37.428C179.674 37.9568 179.47 38.5761 179.47 39.2884C179.47 40.0008 179.674 40.62 180.084 41.1488C180.47 41.6776 181.062 41.9297 181.815 41.9297C182.315 41.9297 182.772 41.7927 183.158 41.516C183.543 41.2639 183.84 40.9434 184.022 40.5515V38.0253C183.84 37.6363 183.543 37.313 183.158 37.039C182.772 36.7869 182.315 36.6499 181.815 36.6499C181.062 36.6499 180.473 36.902 180.084 37.4308M184.478 43.3079C184.182 43.8367 183.704 44.2723 183.09 44.6176C182.451 44.9628 181.677 45.1464 180.766 45.1464C179.856 45.1464 179.103 44.9847 178.399 44.6422C177.693 44.297 177.147 43.8614 176.736 43.2887C176.326 42.7161 176.008 42.0941 175.802 41.4064C175.598 40.7406 175.484 40.0282 175.484 39.2939C175.484 38.5596 175.598 37.8472 175.802 37.1595C176.005 36.4937 176.326 35.8745 176.736 35.2991C177.147 34.7237 177.693 34.2881 178.399 33.9456C179.106 33.6004 179.88 33.4415 180.766 33.4415C181.652 33.4415 182.451 33.625 183.09 33.9703C183.704 34.3155 184.182 34.7511 184.478 35.2799V33.7867H187.894V44.7984H184.478V43.3052V43.3079Z" fill="black"/>
<path d="M193.633 35.2717C194.568 33.9182 195.978 33.3428 197.913 33.5511V37.3404C197.139 37.1787 196.389 37.2034 195.682 37.4089C194.954 37.639 194.429 38.0062 194.087 38.535V44.8039H190.215V33.7785H193.63V35.2717H193.633Z" fill="black"/>
<path d="M108.774 51.6509H110.416V67.7233H108.503V55.3032L102.785 63.934H101.603L95.8859 55.3032V67.7233H93.9728V51.6509H95.6141L102.193 61.5694L108.774 51.6509Z" fill="black"/>
<path d="M116.13 59.2515C115.378 60.0104 115.014 60.9968 115.014 62.2133C115.014 63.4298 115.378 64.4162 116.13 65.1751C116.859 65.9341 117.769 66.3013 118.864 66.3013C119.799 66.3013 120.617 66.0492 121.323 65.5204C122.03 64.9916 122.552 64.3504 122.894 63.5915V60.8351C122.552 60.0762 122.03 59.435 121.323 58.9062C120.617 58.3774 119.799 58.1253 118.864 58.1253C117.772 58.1253 116.861 58.4925 116.13 59.2515ZM123.076 65.8875C121.848 67.2876 120.367 68 118.658 68C117.087 68 115.788 67.4493 114.764 66.3478C113.717 65.2464 113.193 63.8682 113.193 62.216C113.193 60.5639 113.717 59.1857 114.764 58.0843C115.788 56.9828 117.087 56.4321 118.658 56.4321C120.367 56.4321 121.845 57.1445 123.076 58.5446V56.7088H124.715V67.7287H123.076V65.893V65.8875Z" fill="black"/>
<path d="M140.677 53.2812L142.476 52.8209V56.7006H146.848V58.3993H142.476V64.0929C142.476 64.8957 142.658 65.4711 143.046 65.7916C143.41 66.1122 144.003 66.2739 144.823 66.2739C145.644 66.2739 146.418 66.1122 147.236 65.7697V67.4685C146.302 67.8137 145.323 67.9726 144.299 67.9726C143.182 67.9726 142.318 67.6739 141.658 67.0547C140.997 66.4574 140.679 65.5861 140.679 64.4134V58.3993H138.63V56.7006H140.679V53.2784L140.677 53.2812ZM138.196 67.7233H136.054L132.046 62.9942H129.905V67.7233H128.084V51.6509H129.905V61.2927H132.114L135.576 56.7006H137.693L133.549 62.1886L138.193 67.7233H138.196Z" fill="black"/>
<path d="M151.47 59.2515C150.717 60.0104 150.353 60.9968 150.353 62.2133C150.353 63.4298 150.717 64.4162 151.47 65.1751C152.198 65.9341 153.109 66.3013 154.204 66.3013C155.139 66.3013 155.957 66.0492 156.663 65.5204C157.37 64.9916 157.891 64.3504 158.234 63.5915V60.8351C157.891 60.0762 157.37 59.435 156.663 58.9062C155.957 58.3774 155.139 58.1253 154.204 58.1253C153.111 58.1253 152.201 58.4925 151.47 59.2515ZM158.416 65.8875C157.185 67.2876 155.707 68 153.997 68C152.427 68 151.128 67.4493 150.103 66.3478C149.057 65.2464 148.533 63.8682 148.533 62.216C148.533 60.5639 149.057 59.1857 150.103 58.0843C151.128 56.9828 152.427 56.4321 153.997 56.4321C155.707 56.4321 157.185 57.1445 158.416 58.5446V56.7088H160.054V67.7287H158.416V65.893V65.8875Z" fill="black"/>
<path d="M179.364 52.3167C179.592 52.5222 179.707 52.8209 179.707 53.188C179.707 53.5552 179.592 53.8319 179.364 54.0374C179.136 54.2429 178.864 54.358 178.522 54.358C178.179 54.358 177.908 54.2429 177.679 54.0374C177.451 53.8319 177.337 53.5552 177.337 53.188C177.337 52.8209 177.451 52.5222 177.679 52.3167C177.908 52.1112 178.179 52.0181 178.522 52.0181C178.864 52.0181 179.136 52.1112 179.364 52.3167ZM179.432 67.7233H177.611V56.7033H179.432V67.7233ZM172.033 65.1751C172.761 64.4162 173.125 63.4298 173.125 62.2133C173.125 60.9968 172.761 60.0104 172.033 59.2515C171.28 58.4925 170.37 58.1253 169.277 58.1253C168.342 58.1253 167.524 58.3774 166.818 58.9062C166.111 59.435 165.59 60.0762 165.247 60.8351V63.5915C165.59 64.3504 166.111 64.9916 166.818 65.5204C167.524 66.0492 168.342 66.3012 169.277 66.3012C170.37 66.3012 171.28 65.9341 172.033 65.1751ZM163.424 51.6509H165.245V58.3555C166.337 57.0705 167.75 56.4266 169.481 56.4266C171.052 56.4266 172.351 56.9773 173.397 58.0788C174.421 59.1802 174.946 60.5584 174.946 62.2106C174.946 63.8627 174.421 65.2409 173.397 66.3424C172.351 67.4438 171.052 67.9945 169.481 67.9945C167.774 67.9945 166.293 67.2821 165.062 65.882V67.7178H163.424V51.6455V51.6509Z" fill="black"/>
</g>
<defs>
<clipPath id="clip0_95_7952">
<rect width="173.913" height="40" fill="white" transform="translate(24 28)"/>
</clipPath>
</defs>
</svg>
